

<svg xmlns="http://www.w3.org/2000/svg" version="1.1" width="3000px" height="3000px" style="shape-rendering:geometricPrecision; text-rendering:geometricPrecision; image-rendering:optimizeQuality; fill-rule:evenodd; clip-rule:evenodd" xmlns:xlink="http://www.w3.org/1999/xlink">
<g><path style="opacity:1" fill="#fefcfc" d="M 913.5,1705.5 C 915.833,1703.83 917.833,1701.83 919.5,1699.5C 940.277,1682.27 961.277,1665.27 982.5,1648.5C 985.764,1646.91 988.431,1644.57 990.5,1641.5C 991.167,1640.17 992.167,1639.17 993.5,1638.5C 994.239,1638.63 994.906,1638.46 995.5,1638C 1003.09,1630.91 1010.09,1623.41 1016.5,1615.5C 1018.5,1612.83 1020.83,1610.5 1023.5,1608.5C 1025.59,1607.42 1026.92,1605.75 1027.5,1603.5C 1038.72,1590.07 1049.22,1576.07 1059,1561.5C 1065.24,1551.01 1070.41,1540.01 1074.5,1528.5C 1074.17,1528.17 1073.83,1527.83 1073.5,1527.5C 1057.53,1535.54 1040.87,1541.71 1023.5,1546C 997.578,1551.73 975.078,1545.56 956,1527.5C 942.032,1508 937.365,1486.34 942,1462.5C 951.56,1421.38 970.06,1385.04 997.5,1353.5C 999.587,1352.42 1000.92,1350.75 1001.5,1348.5C 1003.59,1347.42 1004.92,1345.75 1005.5,1343.5C 1007.12,1340.22 1009.45,1337.55 1012.5,1335.5C 1014.59,1334.42 1015.92,1332.75 1016.5,1330.5C 1017.83,1328.5 1019.5,1326.83 1021.5,1325.5C 1023.59,1324.42 1024.92,1322.75 1025.5,1320.5C 1034.89,1310.45 1044.55,1300.78 1054.5,1291.5C 1058.77,1288.9 1062.44,1285.57 1065.5,1281.5C 1065.83,1280.5 1066.5,1279.83 1067.5,1279.5C 1070.76,1277.91 1073.43,1275.57 1075.5,1272.5C 1096.77,1253.06 1119.11,1234.89 1142.5,1218C 1155.99,1208.85 1170.32,1207.18 1185.5,1213C 1196.77,1222.23 1200.94,1234.06 1198,1248.5C 1195.78,1258.77 1190.61,1267.27 1182.5,1274C 1135.35,1308.13 1092.19,1346.97 1053,1390.5C 1040.01,1405.8 1029.01,1422.46 1020,1440.5C 1015.45,1450.03 1013.78,1460.03 1015,1470.5C 1015.41,1472.41 1016.57,1473.41 1018.5,1473.5C 1025.72,1472.04 1032.72,1469.87 1039.5,1467C 1054.86,1459.32 1070.2,1451.65 1085.5,1444C 1100.82,1436.8 1116.48,1435.8 1132.5,1441C 1145.73,1447.26 1153.23,1457.76 1155,1472.5C 1156.43,1496.94 1152.76,1520.61 1144,1543.5C 1128.21,1580.9 1107.21,1614.9 1081,1645.5C 1045.82,1685.69 1006.66,1721.19 963.5,1752C 951.949,1761.14 938.949,1764.47 924.5,1762C 909.506,1757.84 902.506,1748.01 903.5,1732.5C 902.908,1721.93 906.241,1712.93 913.5,1705.5 Z"/></g>
<g><path style="opacity:0.955" fill="#d1201f" d="M 1209.5,1237.5 C 1220.72,1240.21 1227.88,1247.21 1231,1258.5C 1233.59,1272.8 1230.26,1285.47 1221,1296.5C 1176.71,1328.77 1135.38,1364.77 1097,1404.5C 1086.6,1416.4 1076.76,1428.73 1067.5,1441.5C 1054.02,1449.24 1040.02,1455.91 1025.5,1461.5C 1025.38,1454.29 1027.05,1447.29 1030.5,1440.5C 1037.25,1425.98 1045.75,1412.65 1056,1400.5C 1084.21,1368.62 1114.71,1339.12 1147.5,1312C 1163.95,1299.88 1180.12,1287.38 1196,1274.5C 1204.55,1263.67 1209.05,1251.34 1209.5,1237.5 Z"/></g>
<g><path style="opacity:1" fill="#fefdfd" d="M 1840.5,1573.5 C 1841.28,1550.84 1841.45,1528.17 1841,1505.5C 1840.62,1504.94 1840.12,1504.61 1839.5,1504.5C 1839.5,1498.48 1839.84,1492.48 1840.5,1486.5C 1841.48,1483.38 1841.81,1480.04 1841.5,1476.5C 1841.5,1475.83 1841.17,1475.5 1840.5,1475.5C 1839.6,1476.21 1839.26,1477.21 1839.5,1478.5C 1825.39,1517.57 1800.72,1548.07 1765.5,1570C 1740.9,1584.07 1714.56,1589.4 1686.5,1586C 1677,1583.92 1668.67,1579.75 1661.5,1573.5C 1660.42,1571.41 1658.75,1570.08 1656.5,1569.5C 1655.5,1569.17 1654.83,1568.5 1654.5,1567.5C 1648.28,1556.4 1642.62,1545.07 1637.5,1533.5C 1637.04,1532.7 1636.38,1532.37 1635.5,1532.5C 1635.01,1527.07 1634.01,1521.74 1632.5,1516.5C 1617.53,1555.3 1592.53,1585.8 1557.5,1608C 1532.9,1622.07 1506.56,1627.4 1478.5,1624C 1469,1621.92 1460.67,1617.75 1453.5,1611.5C 1452.42,1609.41 1450.75,1608.08 1448.5,1607.5C 1444.74,1604.07 1441.74,1600.07 1439.5,1595.5C 1438.09,1593.69 1436.93,1591.69 1436,1589.5C 1433.21,1578.71 1430.21,1568.05 1427,1557.5C 1426.67,1554.17 1426.33,1550.83 1426,1547.5C 1425.29,1546.62 1424.46,1545.95 1423.5,1545.5C 1423.67,1533.5 1423.5,1521.5 1423,1509.5C 1415.99,1547.22 1402.32,1582.22 1382,1614.5C 1371.64,1630.2 1358.14,1642.36 1341.5,1651C 1327.82,1656.9 1313.82,1657.9 1299.5,1654C 1294.41,1652.04 1289.91,1649.21 1286,1645.5C 1274.63,1663.87 1260.13,1679.37 1242.5,1692C 1226.08,1701.81 1210.92,1700.31 1197,1687.5C 1177.93,1662.13 1167.43,1633.46 1165.5,1601.5C 1165.92,1599.22 1165.26,1597.55 1163.5,1596.5C 1160.28,1575.57 1159.78,1554.57 1162,1533.5C 1164.01,1524.15 1166.01,1514.82 1168,1505.5C 1170.83,1495.18 1174.33,1485.18 1178.5,1475.5C 1183.89,1455.16 1190.39,1435.16 1198,1415.5C 1203.5,1402.67 1211.33,1391.5 1221.5,1382C 1231.32,1375.89 1241.98,1373.89 1253.5,1376C 1267.19,1381.89 1273.86,1392.39 1273.5,1407.5C 1273.47,1411.24 1272.97,1414.9 1272,1418.5C 1257.52,1450.94 1246.85,1484.61 1240,1519.5C 1235.91,1541.8 1235.58,1564.13 1239,1586.5C 1239.33,1586.83 1239.67,1587.17 1240,1587.5C 1245.12,1576.14 1249.45,1564.48 1253,1552.5C 1258.77,1528.98 1263.77,1505.31 1268,1481.5C 1277.72,1461.05 1293.88,1452.22 1316.5,1455C 1330.59,1458.25 1337.92,1467.08 1338.5,1481.5C 1337.87,1488.22 1337.2,1494.88 1336.5,1501.5C 1335.34,1517.66 1335.17,1533.99 1336,1550.5C 1336.72,1549.96 1337.22,1549.29 1337.5,1548.5C 1348.85,1531.64 1355.35,1512.97 1357,1492.5C 1359.43,1472.24 1360.6,1451.91 1360.5,1431.5C 1360.38,1413.43 1359.55,1395.43 1358,1377.5C 1364.43,1355.19 1379.27,1343.19 1402.5,1341.5C 1407.41,1341.73 1412.07,1342.89 1416.5,1345C 1424.2,1351.04 1429.04,1358.87 1431,1368.5C 1435.45,1398.51 1435.62,1428.51 1431.5,1458.5C 1430.53,1460.61 1430.2,1462.94 1430.5,1465.5C 1430.5,1465.83 1430.5,1466.17 1430.5,1466.5C 1428.82,1472.62 1427.98,1478.95 1428,1485.5C 1429.23,1479.5 1430.4,1473.5 1431.5,1467.5C 1431.5,1467.17 1431.5,1466.83 1431.5,1466.5C 1432.34,1466.16 1432.67,1465.49 1432.5,1464.5C 1435.76,1451.57 1439.92,1438.9 1445,1426.5C 1445.75,1409.13 1445.25,1391.79 1443.5,1374.5C 1443.29,1372.82 1443.95,1371.82 1445.5,1371.5C 1449.89,1372.45 1453.39,1374.78 1456,1378.5C 1459.14,1383.11 1461.47,1388.11 1463,1393.5C 1466.95,1387.92 1471.11,1382.58 1475.5,1377.5C 1477.59,1376.42 1478.92,1374.75 1479.5,1372.5C 1483.79,1366.54 1488.79,1361.2 1494.5,1356.5C 1497.76,1354.91 1500.43,1352.57 1502.5,1349.5C 1528.4,1325.78 1558.07,1319.61 1591.5,1331C 1615.1,1343.3 1630.26,1362.46 1637,1388.5C 1639.3,1396.02 1640.8,1403.69 1641.5,1411.5C 1641.15,1414.07 1641.65,1416.41 1643,1418.5C 1643.46,1417.91 1643.63,1417.24 1643.5,1416.5C 1645.43,1409.05 1647.76,1401.72 1650.5,1394.5C 1652.66,1391.52 1654.33,1388.18 1655.5,1384.5C 1662.58,1367.99 1671.91,1352.99 1683.5,1339.5C 1685.59,1338.42 1686.92,1336.75 1687.5,1334.5C 1691.79,1328.54 1696.79,1323.2 1702.5,1318.5C 1705.76,1316.91 1708.43,1314.57 1710.5,1311.5C 1736.4,1287.78 1766.07,1281.61 1799.5,1293C 1823.1,1305.3 1838.26,1324.46 1845,1350.5C 1848.52,1363.29 1850.85,1376.29 1852,1389.5C 1853.98,1378.45 1856.14,1367.45 1858.5,1356.5C 1860.04,1351.99 1861.37,1347.32 1862.5,1342.5C 1866.39,1324.26 1871.23,1306.26 1877,1288.5C 1878.87,1283.16 1881.7,1278.49 1885.5,1274.5C 1888.17,1272.5 1890.5,1270.17 1892.5,1267.5C 1902.89,1258.52 1914.89,1255.68 1928.5,1259C 1940.76,1263.59 1947.26,1272.43 1948,1285.5C 1968.99,1269.46 1992.16,1264.96 2017.5,1272C 2034.66,1280.82 2046.49,1294.32 2053,1312.5C 2071.11,1375.33 2064.77,1435.66 2034,1493.5C 2021.73,1514.43 2004.9,1530.6 1983.5,1542C 1959.83,1551.3 1936.5,1550.47 1913.5,1539.5C 1912.73,1548.86 1913.23,1558.19 1915,1567.5C 1916.67,1575.83 1918.33,1584.17 1920,1592.5C 1925.71,1613.3 1931.21,1634.13 1936.5,1655C 1933.57,1682.1 1918.57,1696.93 1891.5,1699.5C 1881.75,1700.32 1873.92,1696.98 1868,1689.5C 1850.04,1652.97 1840.87,1614.31 1840.5,1573.5 Z M 1979.5,1345.5 C 1980.68,1345.28 1981.68,1345.61 1982.5,1346.5C 1987.71,1358.43 1989.71,1370.93 1988.5,1384C 1989.3,1411.39 1984.13,1437.56 1973,1462.5C 1962.9,1478.92 1949.4,1482.42 1932.5,1473C 1928.13,1470.38 1926.46,1466.54 1927.5,1461.5C 1928.45,1427.36 1937.61,1395.69 1955,1366.5C 1961.51,1357.48 1969.68,1350.48 1979.5,1345.5 Z M 1754.5,1359.5 C 1762.73,1358.4 1768.9,1361.4 1773,1368.5C 1778.32,1380.41 1780.82,1392.91 1780.5,1406C 1780.3,1438.91 1771.8,1469.41 1755,1497.5C 1747.87,1509.45 1737.37,1516.45 1723.5,1518.5C 1716.14,1517.3 1710.97,1513.3 1708,1506.5C 1706.27,1502.64 1704.93,1498.64 1704,1494.5C 1700.08,1456.41 1707.08,1420.41 1725,1386.5C 1728.89,1379.89 1733.39,1373.72 1738.5,1368C 1743.49,1364.34 1748.83,1361.51 1754.5,1359.5 Z M 1546.5,1397.5 C 1554.73,1396.4 1560.9,1399.4 1565,1406.5C 1570.32,1418.41 1572.82,1430.91 1572.5,1444C 1572.3,1476.91 1563.8,1507.41 1547,1535.5C 1539.87,1547.45 1529.37,1554.45 1515.5,1556.5C 1508.14,1555.3 1502.97,1551.3 1500,1544.5C 1498.27,1540.64 1496.93,1536.64 1496,1532.5C 1492.08,1494.41 1499.08,1458.41 1517,1424.5C 1520.89,1417.89 1525.39,1411.72 1530.5,1406C 1535.49,1402.34 1540.83,1399.51 1546.5,1397.5 Z"/></g>
<g><path style="opacity:0.937" fill="#f1b7b6" d="M 1892.5,1267.5 C 1890.5,1270.17 1888.17,1272.5 1885.5,1274.5C 1886.83,1271.17 1889.17,1268.83 1892.5,1267.5 Z"/></g>
<g><path style="opacity:0.969" fill="#f4c3c3" d="M 1075.5,1272.5 C 1073.43,1275.57 1070.76,1277.91 1067.5,1279.5C 1069.57,1276.43 1072.24,1274.09 1075.5,1272.5 Z"/></g>
<g><path style="opacity:0.992" fill="#f5c9c8" d="M 1065.5,1281.5 C 1062.44,1285.57 1058.77,1288.9 1054.5,1291.5C 1057.56,1287.43 1061.23,1284.1 1065.5,1281.5 Z"/></g>
<g><path style="opacity:0.948" fill="#d1201f" d="M 2062.5,1308.5 C 2062.9,1307.47 2063.56,1307.31 2064.5,1308C 2081.43,1325.36 2091.26,1346.19 2094,1370.5C 2100.96,1423.39 2091.96,1473.39 2067,1520.5C 2056.58,1537.92 2043.08,1552.42 2026.5,1564C 2000.28,1578.36 1973.61,1579.19 1946.5,1566.5C 1946.16,1580.95 1947.66,1595.28 1951,1609.5C 1956.94,1633.75 1963.1,1657.91 1969.5,1682C 1967.19,1704.62 1955.19,1719.28 1933.5,1726C 1917.75,1729.04 1905.75,1723.88 1897.5,1710.5C 1931.02,1701.09 1947.19,1679.09 1946,1644.5C 1936.63,1615.69 1929.46,1586.36 1924.5,1556.5C 1962.81,1564.34 1995.31,1554.01 2022,1525.5C 2046.66,1496.58 2062.33,1463.25 2069,1425.5C 2076.1,1393.14 2076.1,1360.81 2069,1328.5C 2067.43,1321.52 2065.26,1314.86 2062.5,1308.5 Z"/></g>
<g><path style="opacity:0.98" fill="#f5c6c6" d="M 1710.5,1311.5 C 1708.43,1314.57 1705.76,1316.91 1702.5,1318.5C 1704.57,1315.43 1707.24,1313.09 1710.5,1311.5 Z"/></g>
<g><path style="opacity:0.89" fill="#f0b3b3" d="M 1025.5,1320.5 C 1024.92,1322.75 1023.59,1324.42 1021.5,1325.5C 1022.08,1323.25 1023.41,1321.58 1025.5,1320.5 Z"/></g>
<g><path style="opacity:0.882" fill="#f1b3b3" d="M 1016.5,1330.5 C 1015.92,1332.75 1014.59,1334.42 1012.5,1335.5C 1013.08,1333.25 1014.41,1331.58 1016.5,1330.5 Z"/></g>
<g><path style="opacity:0.745" fill="#d32524" d="M 1862.5,1342.5 C 1861.37,1347.32 1860.04,1351.99 1858.5,1356.5C 1855.84,1349 1853.67,1341.34 1852,1333.5C 1855.37,1336.53 1858.37,1339.87 1861,1343.5C 1861.38,1342.94 1861.88,1342.61 1862.5,1342.5 Z"/></g>
<g><path style="opacity:0.761" fill="#f1b8b7" d="M 1687.5,1334.5 C 1686.92,1336.75 1685.59,1338.42 1683.5,1339.5C 1684.08,1337.25 1685.41,1335.58 1687.5,1334.5 Z"/></g>
<g><path style="opacity:0.737" fill="#f1b5b5" d="M 1005.5,1343.5 C 1004.92,1345.75 1003.59,1347.42 1001.5,1348.5C 1002.08,1346.25 1003.41,1344.58 1005.5,1343.5 Z"/></g>
<g><path style="opacity:0.737" fill="#f2b8b7" d="M 1001.5,1348.5 C 1000.92,1350.75 999.587,1352.42 997.5,1353.5C 998.08,1351.25 999.413,1349.58 1001.5,1348.5 Z"/></g>
<g><path style="opacity:0.98" fill="#f5c6c6" d="M 1502.5,1349.5 C 1500.43,1352.57 1497.76,1354.91 1494.5,1356.5C 1496.57,1353.43 1499.24,1351.09 1502.5,1349.5 Z"/></g>
<g><path style="opacity:0.947" fill="#d1201f" d="M 1973.5,1358.5 C 1974.5,1358.41 1975.33,1358.75 1976,1359.5C 1981.08,1387 1978.42,1413.67 1968,1439.5C 1966.17,1447.13 1964.51,1454.8 1963,1462.5C 1955.39,1468.68 1947.56,1469.01 1939.5,1463.5C 1938.16,1430.84 1945.33,1400.17 1961,1371.5C 1964.7,1366.64 1968.86,1362.3 1973.5,1358.5 Z"/></g>
<g><path style="opacity:0.465" fill="#eb9c9c" d="M 1445.5,1371.5 C 1443.95,1371.82 1443.29,1372.82 1443.5,1374.5C 1442.57,1373.43 1442.23,1372.1 1442.5,1370.5C 1443.79,1370.26 1444.79,1370.6 1445.5,1371.5 Z"/></g>
<g><path style="opacity:0.953" fill="#d1201f" d="M 1753.5,1370.5 C 1757.11,1370.21 1760.28,1371.21 1763,1373.5C 1767.04,1381.72 1768.7,1390.38 1768,1399.5C 1756.77,1414.15 1748.77,1430.48 1744,1448.5C 1738.4,1466.75 1735.4,1485.42 1735,1504.5C 1725.79,1510.07 1719.46,1507.73 1716,1497.5C 1710.1,1458.96 1716.1,1422.3 1734,1387.5C 1738.58,1379.41 1745.08,1373.74 1753.5,1370.5 Z"/></g>
<g><path style="opacity:0.766" fill="#d22322" d="M 1655.5,1384.5 C 1654.33,1388.18 1652.66,1391.52 1650.5,1394.5C 1647.84,1387 1645.67,1379.34 1644,1371.5C 1648.44,1375.43 1652.28,1379.77 1655.5,1384.5 Z"/></g>
<g><path style="opacity:0.761" fill="#f1b8b7" d="M 1479.5,1372.5 C 1478.92,1374.75 1477.59,1376.42 1475.5,1377.5C 1476.08,1375.25 1477.41,1373.58 1479.5,1372.5 Z"/></g>
<g><path style="opacity:0.917" fill="#d1201f" d="M 1284.5,1403.5 C 1297.08,1405.91 1304.24,1413.58 1306,1426.5C 1306.67,1431.5 1306.67,1436.5 1306,1441.5C 1297.69,1444.39 1289.53,1447.89 1281.5,1452C 1274.36,1456.64 1268.36,1462.48 1263.5,1469.5C 1263.17,1469.17 1262.83,1468.83 1262.5,1468.5C 1269.06,1451.05 1275.89,1433.72 1283,1416.5C 1283.92,1412.21 1284.42,1407.88 1284.5,1403.5 Z"/></g>
<g><path style="opacity:0.953" fill="#d1201f" d="M 1545.5,1408.5 C 1549.11,1408.21 1552.28,1409.21 1555,1411.5C 1559.04,1419.72 1560.7,1428.38 1560,1437.5C 1548.77,1452.15 1540.77,1468.48 1536,1486.5C 1530.4,1504.75 1527.4,1523.42 1527,1542.5C 1517.79,1548.07 1511.46,1545.73 1508,1535.5C 1502.1,1496.96 1508.1,1460.3 1526,1425.5C 1530.58,1417.41 1537.08,1411.74 1545.5,1408.5 Z"/></g>
<g><path style="opacity:0.749" fill="#f0b4b4" d="M 1641.5,1411.5 C 1642.17,1413.17 1642.83,1414.83 1643.5,1416.5C 1643.63,1417.24 1643.46,1417.91 1643,1418.5C 1641.65,1416.41 1641.15,1414.07 1641.5,1411.5 Z"/></g>
<g><path style="opacity:0.255" fill="#eda8a8" d="M 1431.5,1458.5 C 1431.21,1460.74 1431.54,1462.74 1432.5,1464.5C 1432.67,1465.49 1432.34,1466.16 1431.5,1466.5C 1431.5,1465.83 1431.17,1465.5 1430.5,1465.5C 1430.2,1462.94 1430.53,1460.61 1431.5,1458.5 Z"/></g>
<g><path style="opacity:0.957" fill="#d22020" d="M 1178.5,1475.5 C 1174.33,1485.18 1170.83,1495.18 1168,1505.5C 1166.01,1514.82 1164.01,1524.15 1162,1533.5C 1159.78,1554.57 1160.28,1575.57 1163.5,1596.5C 1163.5,1597.5 1163.5,1598.5 1163.5,1599.5C 1148.9,1627.7 1131.06,1653.7 1110,1677.5C 1073.85,1717.78 1033.68,1753.28 989.5,1784C 975.048,1792.44 960.714,1792.44 946.5,1784C 943.388,1781.56 941.055,1778.56 939.5,1775C 947.807,1771.78 955.807,1767.78 963.5,1763C 1014.67,1727.17 1060.17,1685 1100,1636.5C 1122.58,1608.7 1140.58,1578.03 1154,1544.5C 1163.59,1520.01 1167.59,1494.67 1166,1468.5C 1170.02,1470.68 1173.69,1473.34 1177,1476.5C 1177.38,1475.94 1177.88,1475.61 1178.5,1475.5 Z"/></g>
<g><path style="opacity:0.627" fill="#f2bbbb" d="M 1430.5,1466.5 C 1430.5,1467.17 1430.83,1467.5 1431.5,1467.5C 1430.4,1473.5 1429.23,1479.5 1428,1485.5C 1427.98,1478.95 1428.82,1472.62 1430.5,1466.5 Z"/></g>
<g><path style="opacity:0.725" fill="#eda8a8" d="M 1840.5,1475.5 C 1841.17,1475.5 1841.5,1475.83 1841.5,1476.5C 1841.81,1480.04 1841.48,1483.38 1840.5,1486.5C 1840.81,1483.61 1840.47,1480.95 1839.5,1478.5C 1839.26,1477.21 1839.6,1476.21 1840.5,1475.5 Z"/></g>
<g><path style="opacity:0.506" fill="#efaeae" d="M 1424.5,1505.5 C 1424.17,1505.5 1423.83,1505.5 1423.5,1505.5C 1423.8,1502.48 1424.3,1499.48 1425,1496.5C 1425.74,1499.59 1425.57,1502.59 1424.5,1505.5 Z"/></g>
<g><path style="opacity:0.951" fill="#d22221" d="M 1839.5,1504.5 C 1840.12,1504.61 1840.62,1504.94 1841,1505.5C 1841.45,1528.17 1841.28,1550.84 1840.5,1573.5C 1839.68,1570.36 1839.18,1567.03 1839,1563.5C 1816.51,1589.65 1788.34,1606.15 1754.5,1613C 1731.61,1618.03 1710.94,1613.53 1692.5,1599.5C 1730.76,1598.92 1764.43,1586.42 1793.5,1562C 1805.11,1551.4 1815.61,1539.9 1825,1527.5C 1829.86,1519.77 1834.69,1512.1 1839.5,1504.5 Z"/></g>
<g><path style="opacity:0.613" fill="#efb1b1" d="M 1336.5,1501.5 C 1336.17,1517.34 1336.5,1533.01 1337.5,1548.5C 1337.22,1549.29 1336.72,1549.96 1336,1550.5C 1335.17,1533.99 1335.34,1517.66 1336.5,1501.5 Z"/></g>
<g><path style="opacity:0.954" fill="#d22020" d="M 1635.5,1532.5 C 1636.38,1532.37 1637.04,1532.7 1637.5,1533.5C 1642.62,1545.07 1648.28,1556.4 1654.5,1567.5C 1636.97,1599.53 1611.97,1624.03 1579.5,1641C 1555.37,1652.4 1530.37,1655.07 1504.5,1649C 1497.05,1646.44 1490.38,1642.61 1484.5,1637.5C 1522.76,1636.92 1556.43,1624.42 1585.5,1600C 1607.19,1581.09 1623.85,1558.59 1635.5,1532.5 Z"/></g>
<g><path style="opacity:0.954" fill="#d22020" d="M 1423.5,1545.5 C 1424.46,1545.95 1425.29,1546.62 1426,1547.5C 1426.33,1550.83 1426.67,1554.17 1427,1557.5C 1430.21,1568.05 1433.21,1578.71 1436,1589.5C 1436.93,1591.69 1438.09,1593.69 1439.5,1595.5C 1428.98,1622.71 1413.31,1646.54 1392.5,1667C 1374.83,1681.75 1354.83,1686.42 1332.5,1681C 1327.84,1679.01 1323.51,1676.51 1319.5,1673.5C 1310.68,1685.61 1301.01,1697.11 1290.5,1708C 1282.87,1714.95 1274.2,1720.28 1264.5,1724C 1248.38,1727.57 1235.38,1722.74 1225.5,1709.5C 1236.13,1706.46 1245.8,1701.63 1254.5,1695C 1266.38,1684.62 1277.38,1673.46 1287.5,1661.5C 1298.51,1667.14 1310.18,1668.97 1322.5,1667C 1346.62,1662.21 1366.12,1650.04 1381,1630.5C 1400.45,1604.93 1414.62,1576.6 1423.5,1545.5 Z"/></g>
<g><path style="opacity:1" fill="#fdf2f2" d="M 1038.5,1573.5 C 1035.61,1574.4 1032.61,1574.74 1029.5,1574.5C 1015.82,1573.95 1004.16,1568.95 994.5,1559.5C 1015.42,1559.48 1035.59,1555.15 1055,1546.5C 1053.87,1551.11 1051.87,1555.44 1049,1559.5C 1045.72,1564.41 1042.22,1569.08 1038.5,1573.5 Z"/></g>
<g><path style="opacity:0.969" fill="#f1b6b6" d="M 1656.5,1569.5 C 1658.75,1570.08 1660.42,1571.41 1661.5,1573.5C 1659.25,1572.92 1657.58,1571.59 1656.5,1569.5 Z"/></g>
<g><path style="opacity:0.633" fill="#eca2a2" d="M 1038.5,1573.5 C 1037.49,1574.76 1035.99,1575.43 1034,1575.5C 1032.29,1575.49 1030.79,1575.16 1029.5,1574.5C 1032.61,1574.74 1035.61,1574.4 1038.5,1573.5 Z"/></g>
<g><path style="opacity:0.467" fill="#ec9d9c" d="M 1163.5,1596.5 C 1165.26,1597.55 1165.92,1599.22 1165.5,1601.5C 1164.83,1600.83 1164.17,1600.17 1163.5,1599.5C 1163.5,1598.5 1163.5,1597.5 1163.5,1596.5 Z"/></g>
<g><path style="opacity:0.906" fill="#f1b5b5" d="M 1027.5,1603.5 C 1026.92,1605.75 1025.59,1607.42 1023.5,1608.5C 1024.08,1606.25 1025.41,1604.58 1027.5,1603.5 Z"/></g>
<g><path style="opacity:0.969" fill="#f1b7b6" d="M 1448.5,1607.5 C 1450.75,1608.08 1452.42,1609.41 1453.5,1611.5C 1451.25,1610.92 1449.58,1609.59 1448.5,1607.5 Z"/></g>
<g><path style="opacity:0.933" fill="#f4c3c2" d="M 1016.5,1615.5 C 1010.09,1623.41 1003.09,1630.91 995.5,1638C 994.906,1638.46 994.239,1638.63 993.5,1638.5C 1000.83,1630.5 1008.5,1622.83 1016.5,1615.5 Z"/></g>
<g><path style="opacity:0.969" fill="#f4c4c3" d="M 990.5,1641.5 C 988.431,1644.57 985.764,1646.91 982.5,1648.5C 984.569,1645.43 987.236,1643.09 990.5,1641.5 Z"/></g>
<g><path style="opacity:0.859" fill="#efafae" d="M 919.5,1699.5 C 917.833,1701.83 915.833,1703.83 913.5,1705.5C 914.5,1702.5 916.5,1700.5 919.5,1699.5 Z"/></g>
</svg>
